# xmcd
#
# Track frame offsets: 
#        182
#        10895
#        23140
#        32887
#        43715
#        55710
#        67355
#        79770
#        90882
#        99437
#        109800
#        118955
#        129140
#        140000
#        151122
#        161302
#        170385
#
# Disc length: 2409 seconds
#
# Revision: 0
# Processed by: cddbd v1.4PL0 Copyright (c) Steve Scherf et al.
# Submitted via: ExactAudioCopy v0.90b4
#
DISCID=d3096711
DTITLE=Johnny Cash - Johnny Cash 16 Greatest Hist Vol. 2
DYEAR=1990
DGENRE=
TTITLE0=Train of love
TTITLE1=You're the nearest thing to heaven
TTITLE2=Just about time
TTITLE3=I heard that lonesome whistle
TTITLE4=Port of lonesome hearts
TTITLE5=Thanks a lot
TTITLE6=Give my love to Rose
TTITLE7=I just thougt you'd like to know
TTITLE8=I forgot to remember to forget
TTITLE9=There you go
TTITLE10=Two Timin'  Woman
TTITLE11=I could never be ashamed of you 
TTITLE12=Fools hall of fame
TTITLE13=Don't make me go
TTITLE14=Goodbye little darling
TTITLE15=Blue Train
TTITLE16=Straight a's in love
EXTD=
EXTT0=
EXTT1=
EXTT2=
EXTT3=
EXTT4=
EXTT5=
EXTT6=
EXTT7=
EXTT8=
EXTT9=
EXTT10=
EXTT11=
EXTT12=
EXTT13=
EXTT14=
EXTT15=
EXTT16=
PLAYORDER=
